<!-- Generated by IcoMoon.io -->
<svg version="1.1"
    xmlns="http://www.w3.org/2000/svg" width="1024" height="1024" viewBox="0 0 1024 1024">
    <title>square</title>
    <g id="icomoon-ignore">
    </g>
    <path fill="#000" d="M896 768v128h-128v-32h-512v32h-128v-128h32v-512h-32v-128h128v32h512v-32h128v128h-32v512h32zM160 864h64v-64h-64v64zM224 160h-64v64h64v-64zM768 224h-512v32h-32v512h32v32h512v-32h32v-512h-32v-32zM864 160h-64v64h64v-64zM800 800v64h64v-64h-64z" style="fill: #10cab7"></path>
</svg>
